<svg width="100" height="100" viewBox="0 0 100 100" fill="none" xmlns="http://www.w3.org/2000/svg">
<rect x="1" width="99" height="99" rx="10" fill="#111827"/>
<path d="M30.2362 65C30.1126 65 30.0186 64.8889 30.039 64.767L35.1578 34.167C35.1739 34.0706 35.2573 34 35.355 34H44.3112C44.3677 34 44.4216 34.0239 44.4596 34.0659L56.7429 47.6526C56.8857 47.8028 57.0857 48.0281 57.3429 48.3285C57.6 48.6289 57.8714 48.9443 58.1571 49.2747C58.4443 49.5766 58.6957 49.8535 58.9113 50.1052C58.9496 50.1499 59.0054 50.1759 59.0642 50.1759H59.2253C59.3254 50.1759 59.41 50.102 59.424 50.0029C59.4802 49.6068 59.5579 49.1088 59.6571 48.5087C59.7714 47.7878 59.8857 47.0969 60 46.436L62.0295 34.1674C62.0454 34.0708 62.1289 34 62.2268 34H71.7638C71.8874 34 71.9814 34.1111 71.961 34.233L66.8422 64.833C66.8261 64.9294 66.7427 65 66.645 65H57.7747C57.718 65 57.6641 64.976 57.6261 64.934L45.9 51.9331C45.4143 51.3924 44.8857 50.8217 44.3143 50.2209C43.8053 49.6295 43.3968 49.1437 43.0887 48.7635C43.0506 48.7164 42.9934 48.689 42.9328 48.689H42.8175C42.7175 48.689 42.6329 48.7628 42.6184 48.8618C42.559 49.2685 42.4672 49.8116 42.3429 50.4913C42.2286 51.2422 42.1 52.0082 41.9571 52.7892L39.9705 64.8326C39.9545 64.9291 39.871 65 39.7731 65H30.2362Z" fill="#F3F4F6"/>
</svg>
